<svg width="32" height="32" viewBox="0 0 32 32" fill="none" xmlns="http://www.w3.org/2000/svg">
  <defs>
    <linearGradient id="logoGradient" x1="0%" y1="0%" x2="100%" y2="100%">
      <stop offset="0%" style="stop-color:#0ea5e9;stop-opacity:1" />
      <stop offset="100%" style="stop-color:#38bdf8;stop-opacity:1" />
    </linearGradient>
  </defs>
  
  <!-- Background Circle -->
  <circle cx="16" cy="16" r="15" fill="url(#logoGradient)" stroke="white" stroke-width="2"/>
  
  <!-- MediaHub Icon - Simplified network/hub design -->
  <g transform="translate(8, 8)">
    <!-- Central hub -->
    <circle cx="8" cy="8" r="2.5" fill="white"/>
    
    <!-- Connection lines -->
    <line x1="8" y1="2" x2="8" y2="5.5" stroke="white" stroke-width="1.5" stroke-linecap="round"/>
    <line x1="8" y1="10.5" x2="8" y2="14" stroke="white" stroke-width="1.5" stroke-linecap="round"/>
    <line x1="2" y1="8" x2="5.5" y2="8" stroke="white" stroke-width="1.5" stroke-linecap="round"/>
    <line x1="10.5" y1="8" x2="14" y2="8" stroke="white" stroke-width="1.5" stroke-linecap="round"/>
    
    <!-- Diagonal connections -->
    <line x1="4.5" y1="4.5" x2="6.5" y2="6.5" stroke="white" stroke-width="1.5" stroke-linecap="round"/>
    <line x1="9.5" y1="9.5" x2="11.5" y2="11.5" stroke="white" stroke-width="1.5" stroke-linecap="round"/>
    <line x1="11.5" y1="4.5" x2="9.5" y2="6.5" stroke="white" stroke-width="1.5" stroke-linecap="round"/>
    <line x1="6.5" y1="9.5" x2="4.5" y2="11.5" stroke="white" stroke-width="1.5" stroke-linecap="round"/>
    
    <!-- Outer nodes -->
    <circle cx="8" cy="2" r="1.5" fill="white"/>
    <circle cx="8" cy="14" r="1.5" fill="white"/>
    <circle cx="2" cy="8" r="1.5" fill="white"/>
    <circle cx="14" cy="8" r="1.5" fill="white"/>
    <circle cx="4.5" cy="4.5" r="1.2" fill="white"/>
    <circle cx="11.5" cy="11.5" r="1.2" fill="white"/>
    <circle cx="11.5" cy="4.5" r="1.2" fill="white"/>
    <circle cx="4.5" cy="11.5" r="1.2" fill="white"/>
  </g>
</svg>