<svg viewBox="130 80 240 350" xmlns="http://www.w3.org/2000/svg">
    <!-- Oreilles -->
    <polygon points="170,150 230,80 250,150 190,170" fill="#E67E22"/>
    <polygon points="330,150 270,80 250,150 310,170" fill="#E67E22"/>
    <polygon points="190,170 250,150 250,190 210,185" fill="#D35400"/>
    <polygon points="310,170 250,150 250,190 290,185" fill="#D35400"/>
    <!-- Tête principale -->
    <polygon points="150,200 350,200 370,350 130,350" fill="#E67E22"/>
    
    <!-- Joues blanches -->
    <polygon points="130,350 200,320 250,380 300,320 370,350" fill="white"/>
    <!-- Museau -->
    <polygon points="200,320 300,320 250,380" fill="#D35400"/>
    
    <!-- Nez -->
    <circle cx="250" cy="390" r="10" fill="black"/>
    <!-- Yeux -->
    <ellipse cx="200" cy="250" rx="14" ry="20" fill="black"/>
    <ellipse cx="300" cy="250" rx="14" ry="20" fill="black"/>
</svg>